<?xml version="1.0" encoding="utf-8"?>
<!-- Generator: Adobe Illustrator 22.1.0, SVG Export Plug-In . SVG Version: 6.00 Build 0)  -->
<svg version="1.1" id="图层_1" xmlns="http://www.w3.org/2000/svg" xmlns:xlink="http://www.w3.org/1999/xlink" x="0px" y="0px"
	 viewBox="0 0 1024 1024" style="enable-background:new 0 0 1024 1024;" xml:space="preserve">
<style type="text/css">
	.st0{fill:#DDDDDD;}
	.st1{fill:#44BCEE;}
</style>
<path class="st0" d="M882.5,183.6H141.1c-42.4,0-76.8,34.5-76.8,76.8v518.7c0,42.4,34.5,76.8,76.8,76.8h208.7L457,954.2
	c1.3,1.2,2.8,2.1,3.9,2.8c12.3,7.8,26.5,11.9,41,12l0,0c14.7,0,29-4.1,41.2-11.8l3.7-2.6l107.4-98.3h228.3
	c42.4,0,76.8-34.5,76.8-76.8v-519C959.3,218,924.9,183.6,882.5,183.6z M904.4,779.4c0,5.8-2.3,11.4-6.4,15.5
	c-4.1,4.1-9.7,6.4-15.5,6.4H644.7c-6.9,0-13.6,2.5-18.7,7.2L513,911.6c-6.6,3.8-14.8,3.8-21.4,0l-113-103.1
	c-5.2-4.7-11.9-7.3-18.7-7.2h-219c-5.8,0-11.4-2.3-15.5-6.4c-4.1-4.1-6.4-9.7-6.4-15.5v-519c0-5.8,2.3-11.4,6.4-15.5
	c4.1-4.1,9.7-6.4,15.5-6.4h741.4c5.8,0,11.4,2.3,15.5,6.4c4.1,4.1,6.4,9.7,6.4,15.5v519L904.4,779.4L904.4,779.4z"/>
<g>
	<path class="st1" d="M536.5,526.8H239.9c-16.6,0-30.1,13.5-30.1,30.1s13.5,30.1,30.1,30.1h296.6c16.6,0,30.1-13.5,30.1-30.1
		C566.6,540.4,553.1,526.8,536.5,526.8z"/>
	<path class="st1" d="M635.4,378.6H239.9c-16.6,0-30.1,13.5-30.1,30.1s13.5,30.1,30.1,30.1h395.4c16.6,0,30.1-13.5,30.1-30.1
		C665.5,392.1,652,378.6,635.4,378.6z"/>
</g>
</svg>
