<?xml version="1.0" encoding="utf-8"?>
<!-- Generator: Adobe Illustrator 22.1.0, SVG Export Plug-In . SVG Version: 6.00 Build 0)  -->
<svg version="1.1" id="图层_1" xmlns="http://www.w3.org/2000/svg" xmlns:xlink="http://www.w3.org/1999/xlink" x="0px" y="0px"
	 viewBox="0 0 1024 1024" style="enable-background:new 0 0 1024 1024;" xml:space="preserve">
<style type="text/css">
	.st0{fill:#DDDDDD;}
	.st1{fill:#44BCEE;stroke:#44BCEE;stroke-width:5.7025;stroke-miterlimit:10;}
	.st2{fill:#231815;}
</style>
<path class="st0" d="M856.7,158.5l-327-81.8c-11.2-2.8-23-2.8-34.2,0l-327,81.8c-31.5,7.9-53.5,36-53.5,68.5v315.2
	c0,67.3,18.7,133.1,54.1,190.3s85.8,103.4,146,133.4l166,83c9.9,4.9,20.7,7.4,31.6,7.4c10.8,0,21.7-2.5,31.6-7.4l166-83
	c60.2-30.1,110.7-76.2,146-133.4c35.4-57.2,54.1-123,54-190.3V227C910.1,194.5,888.1,166.4,856.7,158.5z M862.4,542.2
	c0,119.8-66.5,227.4-173.7,281l-166,83c-6.4,3.2-14,3.2-20.4,0l-166-83c-107.1-53.6-173.7-161.2-173.7-281V227
	c0-10.5,7.1-19.6,17.3-22.2l327-81.8c1.8-0.5,3.7-0.7,5.5-0.7s3.7,0.2,5.5,0.7l327,81.8c10.2,2.5,17.3,11.7,17.3,22.2v315.2H862.4z"
	/>
<path class="st1" d="M531.2,467.6h98.1c11.6,0,21,9.4,21,21s-9.4,21-21,21h-98.1v98.1c0,11.6-9.4,21-21,21c-11.6,0-21-9.4-21-21
	v-98.1h-98.1c-7.5,0-14.5-4-18.2-10.5c-3.8-6.5-3.8-14.5,0-21s10.7-10.5,18.2-10.5h98.1v-98.1c0-7.5,4-14.5,10.5-18.2
	c6.5-3.8,14.5-3.8,21,0s10.5,10.7,10.5,18.2V467.6z"/>
<path class="st2" d="M531.2,467.6"/>
</svg>
