<?xml version="1.0" encoding="utf-8"?>
<!-- Generator: Adobe Illustrator 22.1.0, SVG Export Plug-In . SVG Version: 6.00 Build 0)  -->
<svg version="1.1" id="图层_1" xmlns="http://www.w3.org/2000/svg" xmlns:xlink="http://www.w3.org/1999/xlink" x="0px" y="0px"
	 viewBox="0 0 1024 1024" style="enable-background:new 0 0 1024 1024;" xml:space="preserve">
<style type="text/css">
	.st0{fill:#44BCEE;}
	.st1{fill:#DDDDDD;}
</style>
<path class="st0" d="M707.2,419c-68.7,0-124.5,55.8-124.5,124.5S638.5,668,707.2,668s124.5-55.8,124.5-124.5S775.9,419,707.2,419z
	 M707.2,628.2c-46.8,0-84.7-37.9-84.7-84.7s37.9-84.7,84.7-84.7s84.7,37.9,84.7,84.7S754,628.2,707.2,628.2z"/>
<path class="st0" d="M318.7,419c-68.7,0-124.5,55.8-124.5,124.5S250,668,318.7,668s124.5-55.8,124.5-124.5S387.4,419,318.7,419z
	 M318.7,628.2c-46.8,0-84.7-37.9-84.7-84.7s37.9-84.7,84.7-84.7s84.7,37.9,84.7,84.7C403.3,590.3,365.5,628.2,318.7,628.2z"/>
<path class="st1" d="M946.3,388.1c0-3-1-6-2-9c0-3,0-6-2-8l-4-10c0-1-1-2-1-2l-44.8-101.6c-16.9-38.9-53.8-66.7-96.6-71.7h-2
	c-5-1-10-2-13.9-2c-62.6-7.3-127.4-11.4-193.4-13v-0.9H521c-2.6,0-5.3,0-7.9,0c-2.7,0-5.4,0-8.1,0h-23v0.1
	c-81.6,0.8-160.8,4.8-236,12.8h-2c-2,0-4,1-6,1c-3,0-6,1-9,1c-42.8,5-79.7,32.9-95.6,71.7l-40.8,94.6c-4,7-7,14.9-10,22.9v2
	c-1,4-2,9-3,13.9c-10,57.8-14.9,118.6-14.9,178.3c0,59.8,5,118.6,14.9,178.3c10,52.8,51.8,92.7,103.6,98.6
	c60.8,8,101.6,12,124.5,13.9h8c41.8,0,77.7-38.9,112.6-76.7c27.9-29.9,59.8-64.8,83.7-64.8c23.9,0,55.8,33.9,83.7,64.8
	c36.9,39.8,74.7,80.7,118.6,76.7c20.9-2,62.8-6,127.5-13.9c53.8-7,95.6-46.8,103.6-98.6c10-60.8,14.9-118.6,14.9-178.3
	C961.2,507.6,956.2,446.9,946.3,388.1z M171.2,271.5c11-25.9,34.9-43.8,63.8-46.8h2c2,0,4-1,6-1c3,0,6-1,8-1c82.7-9,171.4-13,262-13
	s179.3,4,264,13h2c2,0,5,1,9,1l3,1h1c28.9,3,53.8,21.9,64.8,47.8l10,21.9c-7-2-14.9-4-22.9-5c-228.1-26.9-431.4-26.9-660.5,0
	c-7,1-14.9,3-21.9,5L171.2,271.5z M906.4,739.8c-6,34.9-33.9,60.8-69.7,65.8c-62.8,8-105.6,12-124.5,13.9
	c-24.9,2-56.8-32.9-85.7-64.8c-35.9-37.9-71.7-76.7-113.6-76.7c-41.8,0-77.7,38.9-112.6,76.7c-28.9,30.9-61.8,66.7-85.7,64.8h-3
	c-21.9-2-63.8-6-123.5-13.9c-34.9-4-62.8-30.9-69.7-66.7c-9-56.8-13.9-112.6-13.9-170.4s5-115.6,14.9-173.3c1-4,2-7,3-10l7-14.9
	c12-20.9,33.9-36.9,59.8-39.9c224.2-27.9,423.4-27.9,649.6-1c34.9,4,62.8,30.9,68.7,64.8c10,57.8,14.9,115.6,14.9,173.3
	C921.4,625.2,916.4,681,906.4,739.8z"/>
</svg>
