<?xml version="1.0" encoding="utf-8"?>
<!-- Generator: Adobe Illustrator 22.1.0, SVG Export Plug-In . SVG Version: 6.00 Build 0)  -->
<svg version="1.1" id="图层_1" xmlns="http://www.w3.org/2000/svg" xmlns:xlink="http://www.w3.org/1999/xlink" x="0px" y="0px"
	 viewBox="0 0 1024 1024" style="enable-background:new 0 0 1024 1024;" xml:space="preserve">
<style type="text/css">
	.st0{fill:#44BCEE;stroke:#44BCEE;stroke-width:5.4181;stroke-miterlimit:10;}
	.st1{fill:#DDDDDD;}
</style>
<path class="st0" d="M412.9,695.3c-97-57.4-130.3-180.2-74.1-275.2s179.9-125,276.9-67.5c97,57.4,130.3,180.2,74.1,275.2
	S510,752.7,412.9,695.3L412.9,695.3z M590,395.9c-74.3-44-168.4-21.6-211.2,50.7s-17.1,165.5,57.3,209.5
	c74.3,44,168.4,21.6,211.2-50.7S664.4,439.8,590,395.9L590,395.9z"/>
<path class="st1" d="M953.6,638.8c-29-31.1-45.3-74.2-45.6-116.2s15.5-82.8,42.5-114.2c5.7-5,8.6-14.5,4.8-22.2
	c-20.1-64.9-54.7-124.3-100.6-173.8c-5-5.7-14.5-8.6-21-6.9c-43.6,7.7-88.1-1.9-125.2-23.9c-37.2-22-67-56.4-81.3-98.2
	c-1.7-6.6-8.7-13.5-16.1-15.1c-66.7-14.4-135.5-16-200.8-4.5c-9.9,2.5-15.6,7.5-17.6,20.3c-14.6,38.8-42.8,72.3-79.7,92.2
	c-36.9,20-81.3,24.4-123.7,16c-9.5-2.8-17.3,0.9-23,5.9c-23.3,25.2-43.3,49.6-60.4,78.5C90,303.5,77,334.9,64,366.2
	c-1.6,7.4,0.9,17.3,5.9,23c29,31.1,45.3,74.2,45.6,116.2S100,588.2,73,619.6c-7,7-9.8,16.5-6,24.3c21.4,62.8,54.7,124.3,100.6,173.8
	l6.2,3.7c4.1,2.4,11.5,4,18.5-3c43.6-7.7,88.1,1.9,125.2,23.9c39.2,23.2,67,56.4,81.2,98.2c1.7,6.6,8.7,13.5,16.1,15.1
	c65.5,16.5,134.2,18.1,200.8,4.5c6.6-1.7,15.6-7.5,17.2-14.9c14.6-38.8,42.8-72.3,79.7-92.2c36.9-20,81.3-24.4,123.7-16
	c9.5,2.8,17.3-0.9,23-5.9c23.3-25.2,43.3-49.6,60.4-78.5c17.1-28.9,30.1-60.3,39.8-90.8C961.1,654.4,958.6,644.6,953.6,638.8z
	 M874,731.1c-12.2,20.6-27.7,42.1-44.1,60.3c-49-6.7-97.9,0.6-142.6,24.3c-43.5,21.7-77.4,60.1-95.6,105.1
	c-52.2,8.1-104.9,7.6-156.8-3.6c-18.4-44.3-53.2-84.4-96.5-110.1c-43.4-25.7-93.2-35.6-144.2-29.6c-34.8-40.1-60.6-86-78.6-135.7
	c31.8-39.7,48-85.9,48.5-138.5c0.1-47.3-17.9-97-47.3-136.7c8.1-23.1,19.5-47,31.7-67.7c12.2-20.6,27.7-42.1,44.1-60.3
	c49,6.7,97.9-0.6,142.6-24.3c43.5-21.7,77.4-60.1,95.6-105.1c52.2-8.1,104.9-7.6,156.8,3.6c18.4,44.3,53.2,84.4,96.5,110.1
	c43.4,25.7,94,38.9,141.7,33.7c34.8,40.1,60.6,86,78.6,135.7c-30.6,37.6-46.8,83.8-46.1,134.4c-0.1,47.3,17.9,97,47.3,136.7
	C897.5,686.5,886.2,710.4,874,731.1z"/>
</svg>
