<?xml version="1.0" encoding="utf-8"?>
<!-- Generator: Adobe Illustrator 22.1.0, SVG Export Plug-In . SVG Version: 6.00 Build 0)  -->
<svg version="1.1" id="图层_1" xmlns="http://www.w3.org/2000/svg" xmlns:xlink="http://www.w3.org/1999/xlink" x="0px" y="0px"
	 viewBox="0 0 1024 1024" style="enable-background:new 0 0 1024 1024;" xml:space="preserve">
<style type="text/css">
	.st0{fill:#44BCEE;stroke:#44BCEE;stroke-width:5;stroke-miterlimit:10;}
	.st1{fill:#DDDDDD;}
	.st2{fill:#231815;}
</style>
<path class="st0" d="M286,279.4l-15.7-37.5l313.8-132c51.8-21.7,111.4,2.5,133.2,54.3l41.1,97.8l-37.5,15.7l-41.1-97.8
	c-13.1-31-48.9-45.6-79.9-32.5L286,279.4z"/>
<path class="st1" d="M847.9,238.7H177.6c-57.4,0.1-104.1,46.8-104.2,104.2v476.5c0,57.4,46.8,104.2,104.2,104.2h670.3
	c57.4-0.1,104.1-46.8,104.2-104.2V342.8C952,285.5,905.2,238.7,847.9,238.7z M906.4,454.8H619.8c-23.8,0-43.1,19.4-43.2,43.2v166.2
	c0,23.8,19.4,43.2,43.2,43.2h286.5v112c0,32.2-26.3,58.5-58.5,58.5H177.6c-32.2,0-58.5-26.3-58.5-58.5V342.8
	c0-32.2,26.3-58.5,58.5-58.5h670.3c32.2,0,58.5,26.3,58.5,58.5V454.8z M906.4,500.5l-0.1,161.2h-284V500.5H906.4z"/>
<path class="st2" d="M286,279.4"/>
</svg>
