<?xml version="1.0" standalone="no"?><!DOCTYPE svg PUBLIC "-//W3C//DTD SVG 1.1//EN" "http://www.w3.org/Graphics/SVG/1.1/DTD/svg11.dtd"><svg t="1652175130999" class="icon" viewBox="0 0 1024 1024" version="1.1" xmlns="http://www.w3.org/2000/svg" p-id="2493" xmlns:xlink="http://www.w3.org/1999/xlink" width="200" height="200"><defs><style type="text/css">@font-face { font-family: feedback-iconfont; src: url("//at.alicdn.com/t/font_1031158_u69w8yhxdu.woff2?t=1630033759944") format("woff2"), url("//at.alicdn.com/t/font_1031158_u69w8yhxdu.woff?t=1630033759944") format("woff"), url("//at.alicdn.com/t/font_1031158_u69w8yhxdu.ttf?t=1630033759944") format("truetype"); }
</style></defs><path d="M416.9 967.7h602.8v-44H448z" fill="#44BCEE" p-id="2494"></path><path d="M373.9 673.7L309 656.3 2.2 967.7h102.2c67.8-0.1 112-8 147.7-26.3 35-17.9 62.1-45.8 99.7-84.3 9.3-9.5 18.9-19.4 29.6-30.1l119.5-119.4-87.6-23.3-39.4-10.6zM353.5 799c-10.9 10.9-20.6 20.9-30 30.5-36.3 37.2-60.2 61.7-89.5 76.7-29.8 15.3-68.6 21.8-129.7 21.9h-7.6L321 700.5l30.1 8-99.1 99.1c-7.3 7.3-7.1 19.5 0.5 27.1 3.9 3.9 9 5.9 14 5.9 4.8 0 9.5-1.8 13.1-5.4l115-115 8.3 2.2 21.4 5.7-70.8 70.9zM990.3 90.4c-20.4-20.4-47.4-31.6-76.2-31.6-28.8 0-55.9 11.2-76.2 31.6L331.4 596.8c-7.6 7.6-10.5 18.4-7.7 28.8 2.8 10.4 10.7 18.3 21.1 21.1l173.6 46.8c2.5 0.7 5.2 1 7.8 1 8 0 15.5-3.1 21.1-8.8l443.1-443.1c42-41.8 42-110.2-0.1-152.2z m-28 124.5L523.2 654l-152.1-41 494.6-494.6c12.9-12.9 30-20 48.3-20s35.4 7.1 48.3 20c26.7 26.5 26.7 69.9 0 96.5z" fill="#231815" p-id="2495"></path></svg>