<?xml version="1.0" encoding="utf-8"?>
<!-- Generator: Adobe Illustrator 22.1.0, SVG Export Plug-In . SVG Version: 6.00 Build 0)  -->
<svg version="1.1" id="图层_1" xmlns="http://www.w3.org/2000/svg" xmlns:xlink="http://www.w3.org/1999/xlink" x="0px" y="0px"
	 viewBox="0 0 1024 1024" style="enable-background:new 0 0 1024 1024;" xml:space="preserve">
<style type="text/css">
	.st0{fill:#44BCEE;}
	.st1{fill:#DDDDDD;}
</style>
<polygon class="st0" points="416.9,967.7 1019.7,967.7 1019.7,923.7 448,923.7 "/>
<path class="st1" d="M373.9,673.7L309,656.3L2.2,967.7h102.2c67.8-0.1,112-8,147.7-26.3c35-17.9,62.1-45.8,99.7-84.3
	c9.3-9.5,18.9-19.4,29.6-30.1l119.5-119.4l-87.6-23.3L373.9,673.7z M353.5,799L353.5,799c-10.9,10.9-20.6,20.9-30,30.5
	c-36.3,37.2-60.2,61.7-89.5,76.7c-29.8,15.3-68.6,21.8-129.7,21.9h-7.6L321,700.5l30.1,8L252,807.6c-7.3,7.3-7.1,19.5,0.5,27.1
	c3.9,3.9,9,5.9,14,5.9c4.8,0,9.5-1.8,13.1-5.4l115-115l8.3,2.2l21.4,5.7L353.5,799z"/>
<path class="st1" d="M990.3,90.4c-20.4-20.4-47.4-31.6-76.2-31.6S858.2,70,837.9,90.4L331.4,596.8c-7.6,7.6-10.5,18.4-7.7,28.8
	c2.8,10.4,10.7,18.3,21.1,21.1l173.6,46.8c2.5,0.7,5.2,1,7.8,1c8,0,15.5-3.1,21.1-8.8l443.1-443.1
	C1032.4,200.8,1032.4,132.4,990.3,90.4z M962.3,214.9L523.2,654l-152.1-41l494.6-494.6c12.9-12.9,30-20,48.3-20s35.4,7.1,48.3,20
	C989,144.9,989,188.3,962.3,214.9z"/>
</svg>
