<?xml version="1.0" standalone="no"?><!DOCTYPE svg PUBLIC "-//W3C//DTD SVG 1.1//EN" "http://www.w3.org/Graphics/SVG/1.1/DTD/svg11.dtd"><svg t="1652175160598" class="icon" viewBox="0 0 1024 1024" version="1.1" xmlns="http://www.w3.org/2000/svg" p-id="3173" xmlns:xlink="http://www.w3.org/1999/xlink" width="200" height="200"><defs><style type="text/css">@font-face { font-family: feedback-iconfont; src: url("//at.alicdn.com/t/font_1031158_u69w8yhxdu.woff2?t=1630033759944") format("woff2"), url("//at.alicdn.com/t/font_1031158_u69w8yhxdu.woff?t=1630033759944") format("woff"), url("//at.alicdn.com/t/font_1031158_u69w8yhxdu.ttf?t=1630033759944") format("truetype"); }
</style></defs><path d="M412.9 695.3c-97-57.4-130.3-180.2-74.1-275.2 56.2-95 179.9-125 276.9-67.5 97 57.4 130.3 180.2 74.1 275.2S510 752.7 412.9 695.3zM590 395.9c-74.3-44-168.4-21.6-211.2 50.7-42.8 72.3-17.1 165.5 57.3 209.5 74.3 44 168.4 21.6 211.2-50.7 42.8-72.3 17.1-165.6-57.3-209.5z m0 0" fill="#44BCEE" p-id="3174"></path><path d="M953.6 638.8c-29-31.1-45.3-74.2-45.6-116.2-0.3-42 15.5-82.8 42.5-114.2 5.7-5 8.6-14.5 4.8-22.2-20.1-64.9-54.7-124.3-100.6-173.8-5-5.7-14.5-8.6-21-6.9-43.6 7.7-88.1-1.9-125.2-23.9-37.2-22-67-56.4-81.3-98.2-1.7-6.6-8.7-13.5-16.1-15.1-66.7-14.4-135.5-16-200.8-4.5-9.9 2.5-15.6 7.5-17.6 20.3-14.6 38.8-42.8 72.3-79.7 92.2-36.9 20-81.3 24.4-123.7 16-9.5-2.8-17.3 0.9-23 5.9-23.3 25.2-43.3 49.6-60.4 78.5C90 303.5 77 334.9 64 366.2c-1.6 7.4 0.9 17.3 5.9 23 29 31.1 45.3 74.2 45.6 116.2 0.3 42-15.5 82.8-42.5 114.2-7 7-9.8 16.5-6 24.3 21.4 62.8 54.7 124.3 100.6 173.8l6.2 3.7c4.1 2.4 11.5 4 18.5-3 43.6-7.7 88.1 1.9 125.2 23.9 39.2 23.2 67 56.4 81.2 98.2 1.7 6.6 8.7 13.5 16.1 15.1 65.5 16.5 134.2 18.1 200.8 4.5 6.6-1.7 15.6-7.5 17.2-14.9 14.6-38.8 42.8-72.3 79.7-92.2 36.9-20 81.3-24.4 123.7-16 9.5 2.8 17.3-0.9 23-5.9 23.3-25.2 43.3-49.6 60.4-78.5s30.1-60.3 39.8-90.8c1.7-7.4-0.8-17.2-5.8-23zM874 731.1c-12.2 20.6-27.7 42.1-44.1 60.3-49-6.7-97.9 0.6-142.6 24.3-43.5 21.7-77.4 60.1-95.6 105.1-52.2 8.1-104.9 7.6-156.8-3.6-18.4-44.3-53.2-84.4-96.5-110.1-43.4-25.7-93.2-35.6-144.2-29.6-34.8-40.1-60.6-86-78.6-135.7 31.8-39.7 48-85.9 48.5-138.5 0.1-47.3-17.9-97-47.3-136.7 8.1-23.1 19.5-47 31.7-67.7 12.2-20.6 27.7-42.1 44.1-60.3 49 6.7 97.9-0.6 142.6-24.3 43.5-21.7 77.4-60.1 95.6-105.1 52.2-8.1 104.9-7.6 156.8 3.6 18.4 44.3 53.2 84.4 96.5 110.1 43.4 25.7 94 38.9 141.7 33.7 34.8 40.1 60.6 86 78.6 135.7-30.6 37.6-46.8 83.8-46.1 134.4-0.1 47.3 17.9 97 47.3 136.7-8.1 23.1-19.4 47-31.6 67.7z" fill="#1B1B1B" p-id="3175"></path></svg>