<?xml version="1.0" standalone="no"?><!DOCTYPE svg PUBLIC "-//W3C//DTD SVG 1.1//EN" "http://www.w3.org/Graphics/SVG/1.1/DTD/svg11.dtd"><svg t="1652175145072" class="icon" viewBox="0 0 1024 1024" version="1.1" xmlns="http://www.w3.org/2000/svg" p-id="2765" xmlns:xlink="http://www.w3.org/1999/xlink" width="200" height="200"><defs><style type="text/css">@font-face { font-family: feedback-iconfont; src: url("//at.alicdn.com/t/font_1031158_u69w8yhxdu.woff2?t=1630033759944") format("woff2"), url("//at.alicdn.com/t/font_1031158_u69w8yhxdu.woff?t=1630033759944") format("woff"), url("//at.alicdn.com/t/font_1031158_u69w8yhxdu.ttf?t=1630033759944") format("truetype"); }
</style></defs><path d="M286 279.4l-15.7-37.5 313.8-132c51.8-21.7 111.4 2.5 133.2 54.3l41.1 97.8-37.5 15.7-41.1-97.8c-13.1-31-48.9-45.6-79.9-32.5L286 279.4z" fill="#44BCEE" p-id="2766"></path><path d="M847.9 238.7H177.6c-57.4 0.1-104.1 46.8-104.2 104.2v476.5c0 57.4 46.8 104.2 104.2 104.2h670.3c57.4-0.1 104.1-46.8 104.2-104.2V342.8c-0.1-57.3-46.9-104.1-104.2-104.1z m58.5 216.1H619.8c-23.8 0-43.1 19.4-43.2 43.2v166.2c0 23.8 19.4 43.2 43.2 43.2h286.5v112c0 32.2-26.3 58.5-58.5 58.5H177.6c-32.2 0-58.5-26.3-58.5-58.5V342.8c0-32.2 26.3-58.5 58.5-58.5h670.3c32.2 0 58.5 26.3 58.5 58.5v112z m0 45.7l-0.1 161.2h-284V500.5h284.1z" fill="#231815" p-id="2767"></path></svg>