<?xml version="1.0" standalone="no"?><!DOCTYPE svg PUBLIC "-//W3C//DTD SVG 1.1//EN" "http://www.w3.org/Graphics/SVG/1.1/DTD/svg11.dtd"><svg t="1652175139796" class="icon" viewBox="0 0 1024 1024" version="1.1" xmlns="http://www.w3.org/2000/svg" p-id="2629" xmlns:xlink="http://www.w3.org/1999/xlink" width="200" height="200"><defs><style type="text/css">@font-face { font-family: feedback-iconfont; src: url("//at.alicdn.com/t/font_1031158_u69w8yhxdu.woff2?t=1630033759944") format("woff2"), url("//at.alicdn.com/t/font_1031158_u69w8yhxdu.woff?t=1630033759944") format("woff"), url("//at.alicdn.com/t/font_1031158_u69w8yhxdu.ttf?t=1630033759944") format("truetype"); }
</style></defs><path d="M882.5 183.6H141.1c-42.4 0-76.8 34.5-76.8 76.8v518.7c0 42.4 34.5 76.8 76.8 76.8h208.7L457 954.2c1.3 1.2 2.8 2.1 3.9 2.8 12.3 7.8 26.5 11.9 41 12 14.7 0 29-4.1 41.2-11.8l3.7-2.6 107.4-98.3h228.3c42.4 0 76.8-34.5 76.8-76.8v-519c0-42.5-34.4-76.9-76.8-76.9z m21.9 595.8c0 5.8-2.3 11.4-6.4 15.5-4.1 4.1-9.7 6.4-15.5 6.4H644.7c-6.9 0-13.6 2.5-18.7 7.2L513 911.6c-6.6 3.8-14.8 3.8-21.4 0l-113-103.1c-5.2-4.7-11.9-7.3-18.7-7.2h-219c-5.8 0-11.4-2.3-15.5-6.4-4.1-4.1-6.4-9.7-6.4-15.5v-519c0-5.8 2.3-11.4 6.4-15.5 4.1-4.1 9.7-6.4 15.5-6.4h741.4c5.8 0 11.4 2.3 15.5 6.4 4.1 4.1 6.4 9.7 6.4 15.5v519z" fill="#231815" p-id="2630"></path><path d="M536.5 526.8H239.9c-16.6 0-30.1 13.5-30.1 30.1s13.5 30.1 30.1 30.1h296.6c16.6 0 30.1-13.5 30.1-30.1 0-16.5-13.5-30.1-30.1-30.1zM635.4 378.6H239.9c-16.6 0-30.1 13.5-30.1 30.1s13.5 30.1 30.1 30.1h395.4c16.6 0 30.1-13.5 30.1-30.1 0.1-16.6-13.4-30.1-30-30.1z" fill="#44BCEE" p-id="2631"></path></svg>