<?xml version="1.0" standalone="no"?><!DOCTYPE svg PUBLIC "-//W3C//DTD SVG 1.1//EN" "http://www.w3.org/Graphics/SVG/1.1/DTD/svg11.dtd"><svg t="1652175153884" class="icon" viewBox="0 0 1024 1024" version="1.1" xmlns="http://www.w3.org/2000/svg" p-id="3037" xmlns:xlink="http://www.w3.org/1999/xlink" width="200" height="200"><defs><style type="text/css">@font-face { font-family: feedback-iconfont; src: url("//at.alicdn.com/t/font_1031158_u69w8yhxdu.woff2?t=1630033759944") format("woff2"), url("//at.alicdn.com/t/font_1031158_u69w8yhxdu.woff?t=1630033759944") format("woff"), url("//at.alicdn.com/t/font_1031158_u69w8yhxdu.ttf?t=1630033759944") format("truetype"); }
</style></defs><path d="M707.2 419c-68.7 0-124.5 55.8-124.5 124.5S638.5 668 707.2 668s124.5-55.8 124.5-124.5S775.9 419 707.2 419z m0 209.2c-46.8 0-84.7-37.9-84.7-84.7 0-46.8 37.9-84.7 84.7-84.7 46.8 0 84.7 37.9 84.7 84.7 0 46.8-37.9 84.7-84.7 84.7zM318.7 419c-68.7 0-124.5 55.8-124.5 124.5S250 668 318.7 668s124.5-55.8 124.5-124.5S387.4 419 318.7 419z m0 209.2c-46.8 0-84.7-37.9-84.7-84.7 0-46.8 37.9-84.7 84.7-84.7 46.8 0 84.7 37.9 84.7 84.7-0.1 46.8-37.9 84.7-84.7 84.7z" fill="#44BCEE" p-id="3038"></path><path d="M946.3 388.1c0-3-1-6-2-9 0-3 0-6-2-8l-4-10c0-1-1-2-1-2l-44.8-101.6c-16.9-38.9-53.8-66.7-96.6-71.7h-2c-5-1-10-2-13.9-2-62.6-7.3-127.4-11.4-193.4-13v-0.9H482v0.1c-81.6 0.8-160.8 4.8-236 12.8h-2c-2 0-4 1-6 1-3 0-6 1-9 1-42.8 5-79.7 32.9-95.6 71.7l-40.8 94.6c-4 7-7 14.9-10 22.9v2c-1 4-2 9-3 13.9-10 57.8-14.9 118.6-14.9 178.3 0 59.8 5 118.6 14.9 178.3 10 52.8 51.8 92.7 103.6 98.6 60.8 8 101.6 12 124.5 13.9h8c41.8 0 77.7-38.9 112.6-76.7 27.9-29.9 59.8-64.8 83.7-64.8 23.9 0 55.8 33.9 83.7 64.8 36.9 39.8 74.7 80.7 118.6 76.7 20.9-2 62.8-6 127.5-13.9 53.8-7 95.6-46.8 103.6-98.6 10-60.8 14.9-118.6 14.9-178.3 0.9-60.6-4.1-121.3-14-180.1zM171.2 271.5c11-25.9 34.9-43.8 63.8-46.8h2c2 0 4-1 6-1 3 0 6-1 8-1 82.7-9 171.4-13 262-13s179.3 4 264 13h2c2 0 5 1 9 1l3 1h1c28.9 3 53.8 21.9 64.8 47.8l10 21.9c-7-2-14.9-4-22.9-5-228.1-26.9-431.4-26.9-660.5 0-7 1-14.9 3-21.9 5l9.7-22.9z m735.2 468.3c-6 34.9-33.9 60.8-69.7 65.8-62.8 8-105.6 12-124.5 13.9-24.9 2-56.8-32.9-85.7-64.8-35.9-37.9-71.7-76.7-113.6-76.7-41.8 0-77.7 38.9-112.6 76.7-28.9 30.9-61.8 66.7-85.7 64.8h-3c-21.9-2-63.8-6-123.5-13.9-34.9-4-62.8-30.9-69.7-66.7-9-56.8-13.9-112.6-13.9-170.4 0-57.8 5-115.6 14.9-173.3 1-4 2-7 3-10l7-14.9c12-20.9 33.9-36.9 59.8-39.9 224.2-27.9 423.4-27.9 649.6-1 34.9 4 62.8 30.9 68.7 64.8 10 57.8 14.9 115.6 14.9 173.3-1 57.7-6 113.5-16 172.3z" fill="#231815" p-id="3039"></path></svg>